<svg xmlns="http://www.w3.org/2000/svg" width="358" height="387.607" viewBox="0 0 358 387.607">
  <path id="Exclusion_2" data-name="Exclusion 2" d="M179,358a180.322,180.322,0,0,1-36.075-3.637A178.02,178.02,0,0,1,78.92,327.43a179.524,179.524,0,0,1-64.853-78.755,178.1,178.1,0,0,1-10.43-33.6A180.327,180.327,0,0,1,0,179c0-3.822.122-7.62.374-11.613C.71,162.062.007,135.221,0,134.95a4.55,4.55,0,0,0,1.45.224,4.567,4.567,0,0,0,2.838-.961,8.137,8.137,0,0,0,2.605-4.365c1.683-5.891,4.254-33.907,4.28-34.189.034.046,3.479,4.655,5.968,4.655a1.978,1.978,0,0,0,1.789-1.281c3.783-7.551,13.156-37.519,13.25-37.821a25.957,25.957,0,0,0,2.162,2.855c2.081,2.36,3.484,2.855,4.3,2.855a2.061,2.061,0,0,0,1.637-.845c2.278-2.8,8.186-28.6,8.246-28.859a31.475,31.475,0,0,0,3.694,3.294c1.985,1.5,4.921,3.295,7.633,3.295a5.212,5.212,0,0,0,3.473-1.259c3.317-2.825,16.775-31.328,16.911-31.615A47.82,47.82,0,0,0,82.75,17.4a20.421,20.421,0,0,0,2.786,4.443,4.859,4.859,0,0,0,3.479,2.019,3.21,3.21,0,0,0,1.6-.452c7.315-4.18,39.9-33.133,40.23-33.425a32.059,32.059,0,0,0,1.3,7.151,14.037,14.037,0,0,0,2.525,4.916,5.873,5.873,0,0,0,4.58,2.235,7.2,7.2,0,0,0,1.54-.175c1.478-.325,5.806-2.6,18.032-11.614,7.293-5.375,14.077-10.706,14.144-10.759a53.516,53.516,0,0,0-.014,6.825,30.68,30.68,0,0,0,.823,5.595,10.345,10.345,0,0,0,2.124,4.44A4.1,4.1,0,0,0,179,0a2.827,2.827,0,0,0,2.288-1.137c.993-1.239,1.568-3.506,1.711-6.739a61.838,61.838,0,0,0-.478-9.532c-.738-6.392-2.017-12.141-2.03-12.2.06.056,8.954,8.463,18.344,16.8,5.554,4.935,10.245,8.931,13.941,11.878,4.621,3.684,7.693,5.729,9.131,6.08a3.482,3.482,0,0,0,.822.1c1.294,0,2.455-.8,3.451-2.387a18.921,18.921,0,0,0,2.061-5.252A48.958,48.958,0,0,0,229.5-10.02c.032.037,5.212,6.211,10.861,12.532,9.455,10.58,13.014,13.531,14.334,14.144a.946.946,0,0,0,.4.093c.613,0,1.226-.665,1.822-1.975a25.345,25.345,0,0,0,1.389-4.345c.757-3.123,1.191-6.289,1.2-6.321.028.039,4.325,6.163,9.41,12.845,8.437,11.087,12.379,14.963,14.2,16.262a6.28,6.28,0,0,0,3.66,1.286,6.552,6.552,0,0,0,3.671-1.244,13.624,13.624,0,0,0,2.883-2.737,22.532,22.532,0,0,0,2.559-3.981c.088.247,8.906,24.919,9.742,25.752a2.8,2.8,0,0,0,2.041.851c.935,0,2.54-.425,4.88-2.449a22.955,22.955,0,0,0,2.421-2.449c.084.243,8.618,24.817,12.236,30.137a.81.81,0,0,0,.646.429c.636,0,1.782-1.1,3.626-6.365,1.109-3.166,1.943-6.334,1.951-6.365.073.35,7.524,35.965,10.613,43.288.754,1.786,1.72,2.692,2.874,2.692a2.875,2.875,0,0,0,1.731-.684c.032.2,3.531,21.678,4.737,26.863.667,2.867,1.979,3.469,2.961,3.469A3.3,3.3,0,0,0,358,141.2V179a180.317,180.317,0,0,1-3.637,36.075,178.023,178.023,0,0,1-26.934,64.006,179.523,179.523,0,0,1-78.755,64.853,178.1,178.1,0,0,1-33.6,10.43A180.323,180.323,0,0,1,179,358ZM293.5,131a30.405,30.405,0,1,0,11.872,2.4A30.31,30.31,0,0,0,293.5,131Zm-228,0a30.405,30.405,0,1,0,11.872,2.4A30.311,30.311,0,0,0,65.5,131Z" transform="translate(0 29.606)" fill="#fff"/>
</svg>
