<svg id="Group_2" data-name="Group 2" xmlns="http://www.w3.org/2000/svg" width="500" height="500" viewBox="0 0 500 500">
  <rect id="Rectangle_1" data-name="Rectangle 1" width="500" height="500" fill="#fff"/>
  <g id="Group_1" data-name="Group 1">
    <path id="Exclusion_9" data-name="Exclusion 9" d="M270.835,462.321h-.014A191.808,191.808,0,0,1,198.76,448.3a190.551,190.551,0,0,1-33.308-17.528,193.346,193.346,0,0,1-54.58-54.58A190.432,190.432,0,0,1,82.827,307.4,192.06,192.06,0,0,1,93.343,198.761a190.526,190.526,0,0,1,17.528-33.308,193.365,193.365,0,0,1,54.58-54.58,190.475,190.475,0,0,1,68.794-28.045A192.062,192.062,0,0,1,342.883,93.344a190.558,190.558,0,0,1,33.308,17.528,193.007,193.007,0,0,1,62.32,67.369l-1.356-.473L271.141,270.5l166.014,91.363,1.009,2.164a191.408,191.408,0,0,1-167.329,98.293Zm-52.013-307a34.391,34.391,0,1,0,13.429,2.711A34.283,34.283,0,0,0,218.821,155.321Z" transform="translate(-20.822 -20.822)" fill="#d0d0d0"/>
  </g>
</svg>
